<svg width="43" height="32" viewBox="0 0 43 32" fill="none" xmlns="http://www.w3.org/2000/svg">
<path fill-rule="evenodd" clip-rule="evenodd" d="M17.4474 2.09607C14.4466 4.26978 12.249 6.10188 10.8547 7.59243C8.49039 10.0767 7.30826 12.4522 7.30826 14.7191C7.30826 15.2159 7.44466 15.6817 7.71747 16.1164C7.99027 16.5512 8.47525 16.7686 9.17242 16.7686C9.44522 16.7686 9.82411 16.7297 10.3091 16.6521C10.7941 16.5745 11.1275 16.5357 11.3094 16.5357C13.0978 16.5357 14.6739 17.1878 16.038 18.492C17.402 19.7962 18.084 21.6128 18.084 23.9418C18.084 26.395 17.3868 28.3513 15.9925 29.8108C14.5982 31.2703 12.7189 32 10.3546 32C7.68714 32 5.45169 31.0141 3.64816 29.0422C1.84461 27.0703 0.942856 24.3144 0.942856 20.7744C0.942856 15.6817 3.01917 11.0083 7.17186 6.754C9.44523 4.45608 12.5067 2.20477 16.3562 0L17.4474 2.09607ZM42.3635 2.09607C39.5445 4.08346 37.4227 5.82241 35.9981 7.31296C33.4822 9.89036 32.2243 12.328 32.2243 14.6259C32.2243 15.278 32.3758 15.8059 32.6789 16.2096C33.0124 16.5822 33.467 16.7686 34.043 16.7686C34.2855 16.7686 34.6568 16.7297 35.1569 16.6521C35.6571 16.5745 35.9981 16.5357 36.1799 16.5357C37.9986 16.5357 39.59 17.1878 40.954 18.492C42.318 19.7962 43 21.6749 43 24.1281C43 26.2397 42.3407 28.0796 41.0222 29.6477C39.7036 31.2159 37.8168 32 35.3615 32C32.7244 32 30.4814 31.0451 28.6324 29.1354C26.7834 27.2256 25.8589 24.4852 25.8589 20.9141C25.8589 15.7904 27.8746 11.1325 31.906 6.94032C34.1794 4.61134 37.3014 2.29792 41.2722 0L42.3635 2.09607Z" fill="#4862B1"/>
</svg>
