<svg viewBox="0 0 18 18" xmlns="http://www.w3.org/2000/svg">
 <title/>
 <desc/>

 <g>
  <title>background</title>
  <rect fill="none" id="canvas_background" height="402" width="582" y="-1" x="-1"/>
 </g>
 <g>
  <title>Layer 1</title>
  <path fill="#1b3070" id="Shape" d="m7.1,12.6l1.4,1.4l5,-5l-5,-5l-1.4,1.4l2.6,2.6l-9.7,0l0,2l9.7,0l-2.6,2.6l0,0zm8.9,-12.6l-14,0c-1.1,0 -2,0.9 -2,2l0,4l2,0l0,-4l14,0l0,14l-14,0l0,-4l-2,0l0,4c0,1.1 0.9,2 2,2l14,0c1.1,0 2,-0.9 2,-2l0,-14c0,-1.1 -0.9,-2 -2,-2l0,0z"/>
 </g>
</svg>
