<svg width="170" height="28" viewBox="0 0 170 28" fill="none" xmlns="http://www.w3.org/2000/svg">
<path d="M10.0575 24.6768L0.511719 26.1623L8.99719 20.1511L10.0575 24.6768Z" fill="#8BC53F"/>
<path d="M8.42969 17.6769L11.7528 24.2524L33.8132 17.6769L31.7522 13.3391L18.7167 8.83771L8.42969 17.6769Z" fill="#8BC53F"/>
<path d="M8.42969 17.6768L8.99558 20.1511L10.0559 24.6768L11.7528 24.2524L8.42969 17.6768Z" fill="#009345"/>
<path d="M21.582 28L25.8248 27.9396L24.6952 25.3739L21.582 28Z" fill="#009345"/>
<path d="M25.8249 27.9396L25.9163 27.7451L26.4608 26.5971L24.6953 25.3739" fill="#8BC53F"/>
<path d="M26.4609 2.05063L33.8146 0L35.7953 1.344L26.4609 2.05063Z" fill="#009345"/>
<path d="M35.7949 1.34399L37.7733 4.87863L36.7845 5.30305H34.0898L35.7949 1.34399Z" fill="#8BC53F"/>
<path d="M37.7733 4.87866L38.41 6.92929L34.0898 5.30308L37.7733 4.87866Z" fill="#009345"/>
<path d="M0.511719 26.1623L1.07982 24.6769L3.20635 24.2524L0.511719 26.1623Z" fill="#009345"/>
<path d="M3.20526 24.2524L0 23.016L1.07874 24.6768L3.20526 24.2524Z" fill="#8BC53F"/>
<path d="M18.7154 8.83766L31.7509 13.339L31.9307 11.7452L17.3125 7.9903L18.7154 8.83766Z" fill="#009345"/>
<path d="M26.4613 2.05063L17.1992 7.91957L17.3156 7.99031L31.9339 11.7453L35.7956 1.34399L26.4613 2.05063Z" fill="#8BC53F"/>
<path d="M17.0391 22.6763L20.6525 24.6768L33.8133 17.6768L17.0391 22.6763Z" fill="#009345"/>
<path d="M33.8134 17.6768L20.6445 24.6488L21.5811 28L33.8134 17.6768Z" fill="#8BC53F"/>
<path d="M53.2641 13.7841V15.0478H49.0214V17.4308H53.8838V18.6945H47.4961V10.3527H53.7526V11.6163H49.0214V13.7849L53.2641 13.7841Z" fill="#1B3070"/>
<path d="M62.6982 10.3527H64.3546L61.4831 18.6945H59.7191L56.8477 10.3527H58.5041L60.6011 17.1102L62.6982 10.3527Z" fill="#1B3070"/>
<path d="M73.893 13.7841V15.0478H69.6503V17.4308H74.5127V18.6945H68.125V10.3527H74.3815V11.6163H69.6503V13.7849L73.893 13.7841Z" fill="#1B3070"/>
<path d="M78.5359 10.3527H82.2658C83.29 10.3527 85.2802 10.4956 85.2802 12.6759C85.2802 13.9153 84.5537 14.5107 83.8868 14.7015V14.7251C85.0791 15.106 85.1026 16.1435 85.1152 16.8929C85.1269 18.0136 85.1152 18.2995 85.4246 18.6922H83.8507C83.6127 18.3106 83.5884 18.0254 83.5884 16.9526C83.5884 16.1899 83.5287 15.3794 81.8244 15.3794H80.0604V18.6922H78.5352L78.5359 10.3527ZM80.0612 14.1179H81.9681C82.7433 14.1179 83.7078 13.9986 83.7078 12.8668C83.7078 11.6628 82.6232 11.6156 82.0035 11.6156H80.0612V14.1179Z" fill="#1B3070"/>
<path d="M97.0496 15.8458C96.9303 17.1102 96.2627 18.9442 93.4391 18.9442C92.7958 18.9442 89.3047 18.8845 89.3047 14.6661C89.3047 11.2339 91.2831 10.1028 93.3559 10.1028C96.2155 10.1028 96.8595 11.8543 96.931 13.0465H95.4175C95.3225 12.3546 94.9172 11.3665 93.3559 11.3665C91.4968 11.3665 90.9361 12.88 90.9361 14.6079C90.9361 16.5613 92.0082 17.6827 93.5106 17.6827C94.8929 17.6827 95.489 16.7418 95.5362 15.8473H97.0496V15.8458Z" fill="#1B3070"/>
<path d="M104.935 10.1021C105.661 10.1021 109.022 10.1972 109.022 14.5224C109.022 18.8477 105.661 18.9427 104.935 18.9427C104.208 18.9427 100.848 18.8477 100.848 14.5224C100.848 10.1972 104.208 10.1021 104.935 10.1021ZM104.935 17.6813C106.997 17.6813 107.389 15.8104 107.389 14.5232C107.389 13.2359 106.997 11.3651 104.935 11.3651C102.872 11.3651 102.48 13.2359 102.48 14.5232C102.48 15.8104 102.874 17.6813 104.935 17.6813Z" fill="#1B3070"/>
<path d="M116.692 10.3527C120.113 10.3527 120.72 12.712 120.72 14.4996C120.72 18.2774 118.074 18.6937 116.394 18.6937H113.379V10.3527H116.692ZM114.905 17.4308H116.323C117.062 17.4308 119.088 17.3114 119.088 14.5239C119.088 11.9494 117.479 11.6163 116.561 11.6163H114.905V17.4308Z" fill="#1B3070"/>
<path d="M130.842 13.7841V15.0478H126.599V17.4308H131.462V18.6945H125.074V10.3527H131.33V11.6163H126.599V13.7849L130.842 13.7841Z" fill="#1B3070"/>
<path d="M146.659 18.6945H141.07V10.3527H142.595V17.4308H146.659V18.6945Z" fill="#1B3070"/>
<path d="M151.484 18.6945H149.852L152.998 10.3527H154.523L157.669 18.6945H156.037L155.43 16.943H152.095L151.484 18.6945ZM155.024 15.6793L153.76 11.973L152.496 15.6793H155.024Z" fill="#1B3070"/>
<path d="M165.373 10.3527C167.495 10.3527 167.911 11.5449 167.911 12.4615C167.911 13.3796 167.339 14.1061 166.529 14.2491V14.2727C167.22 14.392 168.257 14.868 168.257 16.3579C168.257 18.4668 166.457 18.693 165.206 18.693H161.441V10.3527H165.373ZM162.966 13.737H164.98C165.826 13.737 166.338 13.4747 166.338 12.7474C166.338 11.6399 165.266 11.6149 164.944 11.6149H162.965V13.737H162.966ZM162.966 17.4308H165.051C165.981 17.4308 166.684 17.2046 166.684 16.1914C166.684 15.0707 165.72 14.9985 165.087 14.9985H162.966V17.4308Z" fill="#1B3070"/>
</svg>
