<svg width="230" height="38" viewBox="0 0 230 38" fill="none" xmlns="http://www.w3.org/2000/svg">
<path d="M13.6464 33.4901L0.691406 35.5061L12.2074 27.3481L13.6464 33.4901Z" fill="#8BC53F"/>
<path d="M11.4414 23.9901L15.9514 32.9141L45.8904 23.9901L43.0934 18.1031L25.4024 11.9941L11.4414 23.9901Z" fill="#8BC53F"/>
<path d="M11.4414 23.9902L12.2094 27.3482L13.6484 33.4902L15.9514 32.9142L11.4414 23.9902Z" fill="#009345"/>
<path d="M29.2891 38L35.0471 37.918L33.5141 34.436L29.2891 38Z" fill="#009345"/>
<path d="M35.0486 37.918L35.1726 37.654L35.9116 36.096L33.5156 34.436" fill="#8BC53F"/>
<path d="M35.9102 2.783L45.8902 0L48.5782 1.824L35.9102 2.783Z" fill="#009345"/>
<path d="M48.5796 1.82422L51.2646 6.62122L49.9226 7.19722H46.2656L48.5796 1.82422Z" fill="#8BC53F"/>
<path d="M51.2646 6.62109L52.1286 9.40409L46.2656 7.19709L51.2646 6.62109Z" fill="#009345"/>
<path d="M0.691406 35.5061L1.46241 33.4901L4.34841 32.9141L0.691406 35.5061Z" fill="#009345"/>
<path d="M4.35 32.9138L0 31.2358L1.464 33.4898L4.35 32.9138Z" fill="#8BC53F"/>
<path d="M25.4001 11.9942L43.0911 18.1032L43.3351 15.9402L23.4961 10.8442L25.4001 11.9942Z" fill="#009345"/>
<path d="M35.9098 2.78322L23.3398 10.7482L23.4978 10.8442L43.3368 15.9402L48.5778 1.82422L35.9098 2.78322Z" fill="#8BC53F"/>
<path d="M23.125 30.7752L28.029 33.4902L45.89 23.9902L23.125 30.7752Z" fill="#009345"/>
<path d="M45.8915 23.9902L28.0195 33.4522L29.2905 38.0002L45.8915 23.9902Z" fill="#8BC53F"/>
<path d="M72.285 18.7068V20.4218H66.527V23.6558H73.126V25.3708H64.457V14.0498H72.948V15.7648H66.527V18.7078L72.285 18.7068Z" fill="#A4ACC6"/>
<path d="M85.0884 14.0498H87.3364L83.4394 25.3708H81.0454L77.1484 14.0498H79.3964L82.2424 23.2208L85.0884 14.0498Z" fill="#A4ACC6"/>
<path d="M100.285 18.7068V20.4218H94.527V23.6558H101.126V25.3708H92.457V14.0498H100.948V15.7648H94.527V18.7078L100.285 18.7068Z" fill="#A4ACC6"/>
<path d="M106.583 14.0498H111.645C113.035 14.0498 115.736 14.2438 115.736 17.2028C115.736 18.8848 114.75 19.6928 113.845 19.9518V19.9838C115.463 20.5008 115.495 21.9088 115.512 22.9258C115.528 24.4468 115.512 24.8348 115.932 25.3678H113.796C113.473 24.8498 113.44 24.4628 113.44 23.0068C113.44 21.9718 113.359 20.8718 111.046 20.8718H108.652V25.3678H106.582L106.583 14.0498ZM108.653 19.1598H111.241C112.293 19.1598 113.602 18.9978 113.602 17.4618C113.602 15.8278 112.13 15.7638 111.289 15.7638H108.653V19.1598Z" fill="#A4ACC6"/>
<path d="M131.71 21.5049C131.548 23.2209 130.642 25.7099 126.81 25.7099C125.937 25.7099 121.199 25.6289 121.199 19.9039C121.199 15.2459 123.884 13.7109 126.697 13.7109C130.578 13.7109 131.452 16.0879 131.549 17.7059H129.495C129.366 16.7669 128.816 15.4259 126.697 15.4259C124.174 15.4259 123.413 17.4799 123.413 19.8249C123.413 22.4759 124.868 23.9979 126.907 23.9979C128.783 23.9979 129.592 22.7209 129.656 21.5069H131.71V21.5049Z" fill="#A4ACC6"/>
<path d="M142.41 13.71C143.396 13.71 147.957 13.839 147.957 19.709C147.957 25.579 143.396 25.708 142.41 25.708C141.424 25.708 136.863 25.579 136.863 19.709C136.863 13.839 141.423 13.71 142.41 13.71ZM142.41 23.996C145.208 23.996 145.741 21.457 145.741 19.71C145.741 17.963 145.208 15.424 142.41 15.424C139.611 15.424 139.079 17.963 139.079 19.71C139.078 21.457 139.613 23.996 142.41 23.996Z" fill="#A4ACC6"/>
<path d="M158.364 14.0498C163.006 14.0498 163.83 17.2518 163.83 19.6778C163.83 24.8048 160.239 25.3698 157.959 25.3698H153.867V14.0498H158.364ZM155.938 23.6558H157.862C158.866 23.6558 161.615 23.4938 161.615 19.7108C161.615 16.2168 159.432 15.7648 158.186 15.7648H155.938V23.6558Z" fill="#A4ACC6"/>
<path d="M177.57 18.7068V20.4218H171.812V23.6558H178.411V25.3708H169.742V14.0498H178.232V15.7648H171.812V18.7078L177.57 18.7068Z" fill="#A4ACC6"/>
<path d="M199.038 25.3708H191.453V14.0498H193.522V23.6558H199.038V25.3708Z" fill="#A4ACC6"/>
<path d="M205.583 25.3708H203.367L207.637 14.0498H209.707L213.977 25.3708H211.762L210.938 22.9938H206.411L205.583 25.3708ZM210.387 21.2788L208.671 16.2488L206.956 21.2788H210.387Z" fill="#A4ACC6"/>
<path d="M224.434 14.0498C227.313 14.0498 227.878 15.6678 227.878 16.9118C227.878 18.1578 227.102 19.1438 226.002 19.3378V19.3698C226.94 19.5318 228.348 20.1778 228.348 22.1998C228.348 25.0618 225.905 25.3688 224.207 25.3688H219.098V14.0498H224.434ZM221.167 18.6428H223.9C225.048 18.6428 225.744 18.2868 225.744 17.2998C225.744 15.7968 224.289 15.7628 223.851 15.7628H221.166V18.6428H221.167ZM221.167 23.6558H223.997C225.259 23.6558 226.213 23.3488 226.213 21.9738C226.213 20.4528 224.904 20.3548 224.046 20.3548H221.167V23.6558Z" fill="#A4ACC6"/>
</svg>
