<?xml version="1.0" encoding="utf-8"?>
<!-- Generator: Adobe Illustrator 22.1.0, SVG Export Plug-In . SVG Version: 6.00 Build 0)  -->
<svg version="1.1" id="Слой_1" xmlns="http://www.w3.org/2000/svg" xmlns:xlink="http://www.w3.org/1999/xlink" x="0px" y="0px"
	 viewBox="0 0 48 48" style="enable-background:new 0 0 48 48;" xml:space="preserve">
<style type="text/css">
	.st0{fill:#8AC249;}
	.st1{fill:#FFFFFF;}
</style>
<path class="st0" d="M24,0C10.7,0,0,10.7,0,24s10.7,24,24,24s24-10.7,24-24S37.3,0,24,0z"/>
<g>
	<rect x="11.6" y="18.7" class="st1" width="5.4" height="16.3"/>
	<path class="st1" d="M17.4,13.6c0-1.6-1.2-2.8-3-2.8c-1.9,0-3.1,1.2-3.1,2.8c0,1.6,1.2,2.8,3,2.8h0C16.2,16.5,17.4,15.2,17.4,13.6z
		"/>
	<path class="st1" d="M30.4,18.3c3.6,0,6.3,2.3,6.3,7.4l0,9.4h-5.4v-8.7c0-2.2-0.8-3.7-2.8-3.7c-1.5,0-2.4,1-2.8,2
		c-0.1,0.3-0.2,0.8-0.2,1.3V35h-5.4c0,0,0.1-14.8,0-16.3h5.4V21C26.2,19.9,27.5,18.3,30.4,18.3z"/>
</g>
</svg>
