<svg width="32" height="32" viewBox="0 0 32 32" fill="none" xmlns="http://www.w3.org/2000/svg">
<path fill-rule="evenodd" clip-rule="evenodd" d="M16.0125 0C24.8559 0 32.0249 7.16343 32.0249 16C32.0249 24.8366 24.8559 32 16.0125 32C7.169 32 0 24.8366 0 16C0 7.16343 7.169 0 16.0125 0Z" fill="#8AC249"/>
<path fill-rule="evenodd" clip-rule="evenodd" d="M24.4473 12.9424C24.6476 18.1419 20.7443 23.9421 13.9394 23.9421C11.8376 23.9421 9.93628 23.3424 8.23438 22.2425C10.2364 22.4427 12.1378 21.9426 13.739 20.7421C12.1378 20.7421 10.7369 19.6422 10.2364 18.1419C10.8366 18.2425 11.4369 18.2425 11.9374 18.0422C10.1357 17.6427 8.93527 16.0427 8.93527 14.3421C9.43577 14.642 10.036 14.7426 10.6363 14.8422C8.93527 13.7424 8.5345 11.5426 9.53551 9.84201C11.3371 12.0427 14.1389 13.5421 17.1419 13.7424C16.6414 11.442 18.3424 9.14258 20.7443 9.14258C21.845 9.14258 22.7463 9.64269 23.4463 10.3421C24.2469 10.1419 25.0475 9.84201 25.8481 9.44246C25.548 10.3421 24.9478 11.0425 24.2469 11.5426C25.0475 11.442 25.7484 11.2427 26.3486 10.9419C25.8481 11.8425 25.1482 12.4422 24.4473 12.9424Z" fill="white"/>
</svg>
