<?xml version="1.0" ?><!DOCTYPE svg  PUBLIC '-//W3C//DTD SVG 1.1//EN'  'http://www.w3.org/Graphics/SVG/1.1/DTD/svg11.dtd'><svg enable-background="new 0 0 512 512" id="Layer_1" version="1.1" viewBox="0 0 512 512" xml:space="preserve" xmlns="http://www.w3.org/2000/svg" xmlns:xlink="http://www.w3.org/1999/xlink"><circle cx="256" cy="256" fill="#8AC249" id="ellipse" r="256"/><path d="M202.6,171.2v209.5c0,3-0.7,5.5-2.2,7.6c-1.5,2.1-3.7,3.1-6.5,3.1c-2,0-4-0.5-5.9-1.4l-83-41.6  c-2.5-1.2-4.6-3.2-6.3-6S96,336.8,96,334V130.5c0-2.4,0.6-4.4,1.8-6.1c1.2-1.7,2.9-2.5,5.2-2.5c1.7,0,4.3,0.9,7.9,2.7l91.3,45.7  C202.4,170.6,202.6,170.9,202.6,171.2z M214,189.2l95.4,154.6L214,296.4V189.2z M416,192.4v188.2c0,3-0.8,5.4-2.5,7.2  s-3.9,2.8-6.8,2.8s-5.7-0.8-8.4-2.3L319.6,349L416,192.4z M415.5,171c0,0.4-15.3,25.3-45.8,74.9S321.2,324.5,316,333l-69.6-113.2  l57.9-94.1c2-3.3,5.1-5,9.3-5c1.7,0,3.2,0.4,4.6,1.1l96.6,48.2C415.2,170.2,415.5,170.5,415.5,171z" fill="#FFFFFF" id="logo"/></svg>
