<svg width="32" height="32" viewBox="0 0 32 32" fill="none" xmlns="http://www.w3.org/2000/svg">
<path fill-rule="evenodd" clip-rule="evenodd" d="M16.0125 32C24.8557 32 32.025 24.8373 32.025 16C32.025 7.16463 24.8557 0 16.0125 0C7.16929 0 0 7.16463 0 16C0 24.8373 7.16929 32 16.0125 32Z" fill="#8AC249"/>
<path fill-rule="evenodd" clip-rule="evenodd" d="M12.1504 13.2911H13.8055V11.6834C13.8055 10.9751 13.8234 9.88098 14.3393 9.20459C14.8816 8.48775 15.6273 7.99951 16.9087 7.99951C18.9969 7.99951 19.8762 8.29772 19.8762 8.29772L19.4629 10.7483C19.4629 10.7483 18.7728 10.5489 18.1288 10.5489C17.4848 10.5489 16.9087 10.7794 16.9087 11.4228V13.2911H19.5486L19.365 15.6844H16.9087V24.0005H13.8055V15.6844H12.1504V13.2911Z" fill="white"/>
</svg>
