<svg width="32" height="32" xmlns="http://www.w3.org/2000/svg">

 <g>
  <title>background</title>
  <circle cx="15" cy="15" r="14" fill="#fff" id="canvas_background" y="-1" x="-1"/>
 </g>
 <g>
  <title>Layer 1</title>
  <path stroke="null" id="svg_1" fill-rule="evenodd" clip-rule="evenodd" fill="#8AC249" d="m9.576991,16.294138c-0.028738,0 0.315054,0.720032 0.324633,0.720032c0.750381,1.325238 2.19686,2.149035 4.636929,2.377634c-0.348049,0.257041 -0.766347,0.744788 -0.824355,1.308383c-0.437988,0.275477 -1.318755,0.3666 -2.003145,0.156437c-0.95953,-0.294439 -1.326738,-2.141661 -2.763105,-1.878299c-0.310796,0.05636 -0.249063,0.255988 0.019691,0.42612c0.437988,0.275477 0.8499,0.620481 1.167614,1.354208c0.244273,0.563595 0.757299,1.570165 2.380464,1.570165c0.643944,0 1.095237,-0.075322 1.095237,-0.075322s0.01224,1.438484 0.01224,1.997865c0,0.645237 -0.895135,0.826957 -0.895135,1.137198c0,0.122727 0.296427,0.134315 0.534314,0.134315c0.470452,0 1.44914,-0.381875 1.44914,-1.052395c0,-0.532518 0.009047,-2.322854 0.009047,-2.636782c0,-0.684742 0.377319,-0.901752 0.377319,-0.901752s0.046832,3.655467 -0.089939,4.146374c-0.16072,0.576236 -0.450761,0.494594 -0.450761,0.751636c0,0.382402 1.178258,0.094284 1.568882,-0.745842c0.301749,-0.652611 0.169767,-4.240131 0.169767,-4.240131l0.321972,-0.006321c0,0 0.018094,1.6418 0.006918,2.392382c-0.011176,0.777445 -0.065459,1.760313 0.40925,2.22383c0.31186,0.304973 1.321948,0.839599 1.321948,0.350798c0,-0.283904 -0.553473,-0.517243 -0.553473,-1.285734l0,-3.536954c0.442246,0 0.375723,1.163007 0.375723,1.163007l0.032463,2.16115c0,0 -0.097922,0.786926 0.875445,1.116129c0.343259,0.11746 1.077675,0.149063 1.112267,-0.047405c0.034592,-0.196468 -0.884492,-0.4888 -0.893007,-1.097693c-0.005322,-0.372394 0.01703,-0.589404 0.01703,-2.205395c0,-1.61599 -0.222986,-2.213296 -1.000508,-2.689454c2.399091,-0.23966 3.884419,-0.816949 4.607659,-2.362885c0.056412,0.00158 0.295363,-0.722139 0.263964,-0.722139c0.162316,-0.583611 0.250127,-1.274146 0.267157,-2.091622c-0.004257,-2.217509 -1.095237,-3.001802 -1.304386,-3.369982c0.308667,-1.67867 -0.052154,-2.442421 -0.21926,-2.704729c-0.618399,-0.21385 -2.15056,0.550427 -2.98822,1.088739c-1.364523,-0.388196 -4.25003,-0.350798 -5.331963,0.100078c-1.996226,-1.390025 -3.052614,-1.177229 -3.052614,-1.177229s-0.682794,1.18987 -0.180411,2.931221c-0.656716,0.814316 -1.146327,1.390552 -1.146327,2.917526c0.000532,0.860668 0.10484,1.630738 0.339534,2.302839zm6.62943,15.50255c-8.817243,0 -15.965554,-7.074961 -15.965554,-15.801729c0,-8.727295 7.148311,-15.801729 15.965554,-15.801729s15.965554,7.074434 15.965554,15.801729c0,8.726768 -7.148311,15.801729 -15.965554,15.801729z"/>
 </g>
</svg>
